<mxfile host="app.diagrams.net" agent="Mozilla/5.0 (Windows NT 10.0; Win64; x64) AppleWebKit/537.36 (KHTML, like Gecko) Chrome/129.0.0.0 Safari/537.36" version="24.7.17">
  <diagram name="Page-1" id="pD3CZAkiwVPmHvdINBKG">
    <mxGraphModel dx="1434" dy="818" grid="1" gridSize="10" guides="1" tooltips="1" connect="1" arrows="1" fold="1" page="1" pageScale="1" pageWidth="1100" pageHeight="850" math="0" shadow="0">
      <root>
        <mxCell id="0" />
        <mxCell id="1" parent="0" />
        <mxCell id="pv2ECHK_tTNCIdMlJOvg-4" value="" style="edgeStyle=orthogonalEdgeStyle;rounded=0;orthogonalLoop=1;jettySize=auto;html=1;" parent="1" source="pv2ECHK_tTNCIdMlJOvg-1" target="pv2ECHK_tTNCIdMlJOvg-2" edge="1">
          <mxGeometry relative="1" as="geometry" />
        </mxCell>
        <mxCell id="pv2ECHK_tTNCIdMlJOvg-1" value="start" style="rounded=1;whiteSpace=wrap;html=1;" parent="1" vertex="1">
          <mxGeometry x="120" y="80" width="120" height="60" as="geometry" />
        </mxCell>
        <mxCell id="pv2ECHK_tTNCIdMlJOvg-6" value="" style="edgeStyle=orthogonalEdgeStyle;rounded=0;orthogonalLoop=1;jettySize=auto;html=1;" parent="1" source="pv2ECHK_tTNCIdMlJOvg-2" target="pv2ECHK_tTNCIdMlJOvg-5" edge="1">
          <mxGeometry relative="1" as="geometry" />
        </mxCell>
        <mxCell id="pv2ECHK_tTNCIdMlJOvg-2" value="int num;&lt;div&gt;int pow = 0;&lt;/div&gt;" style="shape=parallelogram;perimeter=parallelogramPerimeter;whiteSpace=wrap;html=1;fixedSize=1;" parent="1" vertex="1">
          <mxGeometry x="120" y="180" width="120" height="60" as="geometry" />
        </mxCell>
        <mxCell id="pv2ECHK_tTNCIdMlJOvg-9" value="true" style="edgeStyle=orthogonalEdgeStyle;rounded=0;orthogonalLoop=1;jettySize=auto;html=1;" parent="1" source="pv2ECHK_tTNCIdMlJOvg-5" target="pv2ECHK_tTNCIdMlJOvg-8" edge="1">
          <mxGeometry relative="1" as="geometry" />
        </mxCell>
        <mxCell id="pv2ECHK_tTNCIdMlJOvg-15" value="false" style="edgeStyle=orthogonalEdgeStyle;rounded=0;orthogonalLoop=1;jettySize=auto;html=1;" parent="1" source="pv2ECHK_tTNCIdMlJOvg-5" target="pv2ECHK_tTNCIdMlJOvg-14" edge="1">
          <mxGeometry relative="1" as="geometry" />
        </mxCell>
        <mxCell id="pv2ECHK_tTNCIdMlJOvg-5" value="i = 2; i &amp;lt;= num; i *= 2&amp;nbsp;" style="shape=hexagon;perimeter=hexagonPerimeter2;whiteSpace=wrap;html=1;fixedSize=1;" parent="1" vertex="1">
          <mxGeometry x="110" y="310" width="140" height="80" as="geometry" />
        </mxCell>
        <mxCell id="pv2ECHK_tTNCIdMlJOvg-11" style="edgeStyle=orthogonalEdgeStyle;rounded=0;orthogonalLoop=1;jettySize=auto;html=1;exitX=1;exitY=0.5;exitDx=0;exitDy=0;entryX=0.5;entryY=0;entryDx=0;entryDy=0;" parent="1" source="pv2ECHK_tTNCIdMlJOvg-8" target="pv2ECHK_tTNCIdMlJOvg-5" edge="1">
          <mxGeometry relative="1" as="geometry">
            <Array as="points">
              <mxPoint x="480" y="350" />
              <mxPoint x="480" y="290" />
              <mxPoint x="180" y="290" />
            </Array>
          </mxGeometry>
        </mxCell>
        <mxCell id="pv2ECHK_tTNCIdMlJOvg-8" value="pow++" style="whiteSpace=wrap;html=1;" parent="1" vertex="1">
          <mxGeometry x="340" y="320" width="120" height="60" as="geometry" />
        </mxCell>
        <mxCell id="pv2ECHK_tTNCIdMlJOvg-17" value="" style="edgeStyle=orthogonalEdgeStyle;rounded=0;orthogonalLoop=1;jettySize=auto;html=1;" parent="1" source="pv2ECHK_tTNCIdMlJOvg-14" target="pv2ECHK_tTNCIdMlJOvg-16" edge="1">
          <mxGeometry relative="1" as="geometry" />
        </mxCell>
        <mxCell id="pv2ECHK_tTNCIdMlJOvg-14" value="pow" style="shape=document;whiteSpace=wrap;html=1;boundedLbl=1;" parent="1" vertex="1">
          <mxGeometry x="120" y="440" width="120" height="80" as="geometry" />
        </mxCell>
        <mxCell id="pv2ECHK_tTNCIdMlJOvg-16" value="end" style="rounded=1;whiteSpace=wrap;html=1;" parent="1" vertex="1">
          <mxGeometry x="120" y="580" width="120" height="60" as="geometry" />
        </mxCell>
        <mxCell id="pv2ECHK_tTNCIdMlJOvg-18" value="&lt;div&gt;&lt;span style=&quot;background-color: initial;&quot;&gt;num = 20&lt;/span&gt;&lt;/div&gt;&lt;div&gt;pow = 0&lt;/div&gt;" style="ellipse;whiteSpace=wrap;html=1;aspect=fixed;" parent="1" vertex="1">
          <mxGeometry x="770" y="90" width="100" height="100" as="geometry" />
        </mxCell>
        <mxCell id="pv2ECHK_tTNCIdMlJOvg-21" value="&lt;div&gt;&lt;span style=&quot;background-color: initial;&quot;&gt;i = 4;&lt;/span&gt;&lt;br&gt;&lt;/div&gt;&lt;div&gt;pow = 2;&lt;/div&gt;" style="ellipse;whiteSpace=wrap;html=1;aspect=fixed;" parent="1" vertex="1">
          <mxGeometry x="770" y="330" width="100" height="100" as="geometry" />
        </mxCell>
        <mxCell id="pv2ECHK_tTNCIdMlJOvg-23" value="&lt;div&gt;&lt;span style=&quot;background-color: initial;&quot;&gt;i = 8;&lt;/span&gt;&lt;br&gt;&lt;/div&gt;&lt;div&gt;pow = 3;&lt;/div&gt;" style="ellipse;whiteSpace=wrap;html=1;aspect=fixed;" parent="1" vertex="1">
          <mxGeometry x="770" y="450" width="100" height="100" as="geometry" />
        </mxCell>
        <mxCell id="pv2ECHK_tTNCIdMlJOvg-24" value="&lt;div&gt;&lt;span style=&quot;background-color: initial;&quot;&gt;i = 2;&lt;/span&gt;&lt;br&gt;&lt;/div&gt;&lt;div&gt;pow = 1;&lt;/div&gt;" style="ellipse;whiteSpace=wrap;html=1;aspect=fixed;" parent="1" vertex="1">
          <mxGeometry x="770" y="210" width="100" height="100" as="geometry" />
        </mxCell>
        <mxCell id="pv2ECHK_tTNCIdMlJOvg-25" value="&lt;div&gt;&lt;span style=&quot;background-color: initial;&quot;&gt;i = 16;&lt;/span&gt;&lt;br&gt;&lt;/div&gt;&lt;div&gt;pow = 4;&lt;/div&gt;" style="ellipse;whiteSpace=wrap;html=1;aspect=fixed;" parent="1" vertex="1">
          <mxGeometry x="770" y="570" width="100" height="100" as="geometry" />
        </mxCell>
      </root>
    </mxGraphModel>
  </diagram>
</mxfile>
